<svg xmlns="http://www.w3.org/2000/svg" viewBox="0 0 600 600" width="600" height="600" role="img" aria-label="Ligue Padel Sante Ile-de-France">
<rect x="0" y="0" width="600" height="600" fill="#070b10"></rect>
<g transform="translate(150,84) scale(1.5)">
<circle cx="100" cy="100" r="94" fill="#0c121a"></circle>
      <circle cx="100" cy="100" r="94" fill="none" stroke="#c6ff00" stroke-width="2.5"></circle>
      
      <path d="M 125.0,164.0 L 124.4,162.7 L 122.5,161.4 L 119.5,160.1 L 115.6,158.9 L 110.8,157.6 L 105.6,156.3 L 100.0,155.0 L 94.4,153.7 L 89.2,152.4 L 84.4,151.1 L 80.5,149.9 L 77.5,148.6 L 75.6,147.3 L 75.0,146.0" fill="none" stroke="#c6ff00" stroke-width="13" stroke-linecap="round" stroke-linejoin="round"></path>
      <path d="M 125.0,128.0 L 124.4,126.7 L 122.5,125.4 L 119.5,124.1 L 115.6,122.9 L 110.8,121.6 L 105.6,120.3 L 100.0,119.0 L 94.4,117.7 L 89.2,116.4 L 84.4,115.1 L 80.5,113.9 L 77.5,112.6 L 75.6,111.3 L 75.0,110.0" fill="none" stroke="#c6ff00" stroke-width="13" stroke-linecap="round" stroke-linejoin="round"></path>
      
      <rect x="90.5" y="84" width="19" height="93" rx="9.5" fill="#0c121a"></rect>
      <rect x="92.5" y="85" width="15" height="91" rx="7.5" fill="#c6ff00"></rect>
      
      <path d="M100,22 C130,22 146,44 146,66 C146,84 128,92 114,94 L86,94 C72,92 54,84 54,66 C54,44 70,22 100,22 Z" fill="#c6ff00"></path>
      
      <g fill="#0c121a">
        <circle cx="85" cy="42" r="4.5"></circle><circle cx="100" cy="42" r="4.5"></circle><circle cx="115" cy="42" r="4.5"></circle>
        <circle cx="70" cy="58" r="4.5"></circle><circle cx="85" cy="58" r="4.5"></circle><circle cx="100" cy="58" r="4.5"></circle><circle cx="115" cy="58" r="4.5"></circle><circle cx="130" cy="58" r="4.5"></circle>
        <circle cx="85" cy="74" r="4.5"></circle><circle cx="100" cy="74" r="4.5"></circle><circle cx="115" cy="74" r="4.5"></circle>
      </g>
      
      <path d="M 75.0,146.0 L 75.6,144.7 L 77.5,143.4 L 80.5,142.1 L 84.4,140.9 L 89.2,139.6 L 94.4,138.3 L 100.0,137.0 L 105.6,135.7 L 110.8,134.4 L 115.6,133.1 L 119.5,131.9 L 122.5,130.6 L 124.4,129.3 L 125.0,128.0" fill="none" stroke="#0c121a" stroke-width="17" stroke-linecap="round" stroke-linejoin="round"></path>
      <path d="M 75.0,146.0 L 75.6,144.7 L 77.5,143.4 L 80.5,142.1 L 84.4,140.9 L 89.2,139.6 L 94.4,138.3 L 100.0,137.0 L 105.6,135.7 L 110.8,134.4 L 115.6,133.1 L 119.5,131.9 L 122.5,130.6 L 124.4,129.3 L 125.0,128.0" fill="none" stroke="#c6ff00" stroke-width="13" stroke-linecap="round" stroke-linejoin="round"></path>
      <path d="M 75.0,110.0 L 75.6,108.7 L 77.5,107.4 L 80.5,106.1 L 84.4,104.9 L 89.2,103.6 L 94.4,102.3 L 100.0,101.0 L 105.6,99.7 L 110.8,98.4 L 115.6,97.1 L 119.5,95.9 L 122.5,94.6 L 124.4,93.3 L 125.0,92.0" fill="none" stroke="#0c121a" stroke-width="17" stroke-linecap="round" stroke-linejoin="round"></path>
      <path d="M 75.0,110.0 L 75.6,108.7 L 77.5,107.4 L 80.5,106.1 L 84.4,104.9 L 89.2,103.6 L 94.4,102.3 L 100.0,101.0 L 105.6,99.7 L 110.8,98.4 L 115.6,97.1 L 119.5,95.9 L 122.5,94.6 L 124.4,93.3 L 125.0,92.0" fill="none" stroke="#c6ff00" stroke-width="13" stroke-linecap="round" stroke-linejoin="round"></path>
      
      <path d="M124,92 C115,88 114,78 121,74 C129,69 140,72 141,81 C142,89 135,94 128,94 C126,94 125,93 124,92 Z" fill="#0c121a"></path>
      <path d="M124,90 C117,86 117,78 122,75 C129,71 138,74 139,81 C140,88 134,92 128,92 C126,92 125,91 124,90 Z" fill="#c6ff00"></path>
      
      <circle cx="129" cy="81" r="2.6" fill="#ff2f7a"></circle>
</g>
<text x="300" y="466" text-anchor="middle" font-family="&#39;Helvetica Neue&#39;,Helvetica,Arial,sans-serif" font-weight="900" font-style="italic" font-size="66" letter-spacing="-1" fill="#ffffff">PADEL SANTÉ</text>
<text x="307" y="506" text-anchor="middle" font-family="&#39;Helvetica Neue&#39;,Helvetica,Arial,sans-serif" font-weight="700" font-size="22" letter-spacing="9" fill="#c6ff00">ÎLE-DE-FRANCE</text>
</svg>